<svg width="28" height="28" viewBox="0 0 28 28" fill="none" xmlns="http://www.w3.org/2000/svg">
<path d="M8.1306 8.13048C8.21188 8.04899 8.30844 7.98434 8.41474 7.94023C8.52104 7.89612 8.63501 7.87341 8.7501 7.87341C8.86519 7.87341 8.97915 7.89612 9.08546 7.94023C9.19176 7.98434 9.28832 8.04899 9.3696 8.13048L14.0001 12.7627L18.6306 8.13048C18.712 8.04912 18.8085 7.98459 18.9148 7.94056C19.0211 7.89653 19.135 7.87387 19.2501 7.87387C19.3652 7.87387 19.4791 7.89653 19.5854 7.94056C19.6917 7.98459 19.7882 8.04912 19.8696 8.13048C19.951 8.21183 20.0155 8.30841 20.0595 8.41471C20.1035 8.521 20.1262 8.63493 20.1262 8.74998C20.1262 8.86503 20.1035 8.97895 20.0595 9.08525C20.0155 9.19154 19.951 9.28812 19.8696 9.36948L15.2373 14L19.8696 18.6305C19.951 18.7118 20.0155 18.8084 20.0595 18.9147C20.1035 19.021 20.1262 19.1349 20.1262 19.25C20.1262 19.365 20.1035 19.479 20.0595 19.5852C20.0155 19.6915 19.951 19.7881 19.8696 19.8695C19.7882 19.9508 19.6917 20.0154 19.5854 20.0594C19.4791 20.1034 19.3652 20.1261 19.2501 20.1261C19.135 20.1261 19.0211 20.1034 18.9148 20.0594C18.8085 20.0154 18.712 19.9508 18.6306 19.8695L14.0001 15.2372L9.3696 19.8695C9.28825 19.9508 9.19166 20.0154 9.08537 20.0594C8.97908 20.1034 8.86515 20.1261 8.7501 20.1261C8.63505 20.1261 8.52112 20.1034 8.41483 20.0594C8.30853 20.0154 8.21195 19.9508 8.1306 19.8695C8.04924 19.7881 7.98471 19.6915 7.94068 19.5852C7.89665 19.479 7.87399 19.365 7.87399 19.25C7.87399 19.1349 7.89665 19.021 7.94068 18.9147C7.98471 18.8084 8.04924 18.7118 8.1306 18.6305L12.7628 14L8.1306 9.36948C8.04911 9.2882 7.98446 9.19164 7.94035 9.08534C7.89624 8.97903 7.87354 8.86507 7.87354 8.74998C7.87354 8.63488 7.89624 8.52092 7.94035 8.41462C7.98446 8.30831 8.04911 8.21176 8.1306 8.13048Z" fill="#1E1E1E"/>
</svg>
